
<svg width="254rem" height="60rem" viewBox="0 0 254 60" fill="none" xmlns="http://www.w3.org/2000/svg">
<g filter="url(#filter0_b_558_1693)">
<!-- <rect x="0.5" width="253" height="60" rx="12" fill="#E8EFFD" fill-opacity="0.4"/> -->
<rect x="1" y="0.5" width="252" height="59" rx="11.5" stroke="url(#paint0_linear_558_1693)"/>
<!-- <path d="M39.116 37.86C36.212 37.86 33.812 37.572 31.508 36.78V32.244C33.716 33.108 35.78 33.444 38.396 33.444C41.324 33.468 42.068 33.012 42.068 32.124C42.068 31.404 41.492 31.044 39.956 31.044H34.676V26.916H39.548C40.988 26.916 41.468 26.556 41.468 25.86C41.468 25.188 40.772 24.756 38.396 24.756C35.972 24.756 34.124 25.116 31.748 26.052V21.612C33.956 20.772 36.356 20.34 39.044 20.34C44.228 20.34 46.868 22.092 46.868 25.068C46.868 26.772 45.932 28.116 44.228 28.764C46.244 29.268 47.492 30.732 47.492 32.724C47.492 36.084 44.78 37.86 39.116 37.86Z" fill="#472981"/> -->
<!-- <path d="M59.724 36V27.36H61.344L65.448 32.292L69.552 27.36H71.172V36H69.732V29.322L65.97 33.786H64.926L61.164 29.322V36H59.724ZM78.8843 36.18C75.3923 36.18 73.1423 34.722 73.1423 31.68C73.1423 28.998 75.0863 27.18 78.5063 27.18C82.3403 27.18 83.8703 29.376 83.2763 32.31H74.6363C74.9243 34.182 76.5083 34.83 79.0463 34.83C80.5763 34.83 81.8003 34.56 82.8443 34.128V35.532C81.6383 35.982 80.4323 36.18 78.8843 36.18ZM74.6543 31.068H81.9083C82.1063 29.502 80.9183 28.512 78.5063 28.512C76.1123 28.512 74.9063 29.556 74.6543 31.068ZM88.1865 36V28.728H84.1185V27.36H93.7125V28.728H89.6805V36H88.1865ZM99.7265 36.18C96.6485 36.18 94.2185 34.632 94.2185 31.68C94.2185 28.71 96.6485 27.18 99.7265 27.18C102.822 27.18 105.234 28.71 105.234 31.68C105.234 34.632 102.822 36.18 99.7265 36.18ZM95.7125 31.68C95.7125 33.624 97.2245 34.794 99.7265 34.794C102.228 34.794 103.758 33.624 103.758 31.68C103.758 29.736 102.228 28.566 99.7265 28.566C97.2245 28.566 95.7125 29.736 95.7125 31.68ZM105.86 38.34V34.668H107.228C108.2 32.76 108.524 30.564 108.488 27.36H116.624V34.668H118.136V38.34H116.696V36H107.3V38.34H105.86ZM108.794 34.668H115.13V28.692H109.892C109.838 31.248 109.532 33.012 108.794 34.668ZM119.736 36V27.36H121.23V30.366H125.73C127.854 30.366 129.024 31.572 129.024 33.192C129.024 34.794 127.854 36 125.73 36H119.736ZM121.23 34.686H125.64C126.792 34.686 127.512 34.2 127.512 33.192C127.512 32.166 126.792 31.68 125.64 31.68H121.23V34.686ZM130.77 36V27.36H132.264V36H130.77ZM140.407 36.144C140.065 36.144 139.795 36.108 139.471 36.018V34.596C139.741 34.668 139.957 34.686 140.173 34.686C141.793 34.686 142.279 33.228 142.405 27.36H150.379V36H148.903V28.728H143.809C143.647 34.056 142.729 36.144 140.407 36.144ZM158.091 36.18C154.599 36.18 152.349 34.722 152.349 31.68C152.349 28.998 154.293 27.18 157.713 27.18C161.547 27.18 163.077 29.376 162.483 32.31H153.843C154.131 34.182 155.715 34.83 158.253 34.83C159.783 34.83 161.007 34.56 162.051 34.128V35.532C160.845 35.982 159.639 36.18 158.091 36.18ZM153.861 31.068H161.115C161.313 29.502 160.125 28.512 157.713 28.512C155.319 28.512 154.113 29.556 153.861 31.068ZM168.358 33.228C165.496 33.228 164.092 32.112 164.092 29.736V27.36H165.586V29.646C165.586 31.338 166.486 31.878 168.592 31.878C169.888 31.878 170.932 31.716 172.03 31.284V27.36H173.506V36H172.03V32.616C170.86 33.012 169.672 33.228 168.358 33.228ZM181.207 36.18C177.715 36.18 175.465 34.722 175.465 31.68C175.465 28.998 177.409 27.18 180.829 27.18C184.663 27.18 186.193 29.376 185.599 32.31H176.959C177.247 34.182 178.831 34.83 181.369 34.83C182.899 34.83 184.123 34.56 185.167 34.128V35.532C183.961 35.982 182.755 36.18 181.207 36.18ZM176.977 31.068H184.231C184.429 29.502 183.241 28.512 180.829 28.512C178.435 28.512 177.229 29.556 176.977 31.068ZM195.937 36V32.364H189.187V36H187.693V27.36H189.187V30.996H195.937V27.36H197.413V36H195.937ZM199.857 36V27.36H201.351V33.912L208.479 27.36H209.811V36H208.317V29.43L201.189 36H199.857ZM219.879 36V32.994H215.685L213.435 36H211.617L214.101 32.85C212.679 32.436 212.049 31.23 212.049 30.168C212.049 28.656 213.183 27.36 215.307 27.36H221.373V36H219.879ZM213.543 30.168C213.543 31.122 214.245 31.662 215.451 31.662H219.879V28.674H215.451C214.245 28.674 213.543 29.232 213.543 30.168Z" fill="#472981"/> -->
<!-- <path d="M58.5 38.25H84.1403V39.15H58.5V38.25ZM83.8125 38.25H94.0185V39.15H83.8125V38.25ZM93.4805 38.25H105.972V39.15H93.4805V38.25ZM105.68 38.25H118.514V39.15H105.68V38.25ZM118.512 38.25H139.537V39.15H118.512V38.25ZM139.201 38.25H174.73V39.15H139.201V38.25ZM174.727 38.25H198.637V39.15H174.727V38.25ZM198.633 38.25H222.597V39.15H198.633V38.25Z" fill="#472981"/> -->
</g>
<defs>
<filter id="filter0_b_558_1693" x="-14.5" y="-15" width="283" height="90" filterUnits="userSpaceOnUse" color-interpolation-filters="sRGB">
<feFlood flood-opacity="0" result="BackgroundImageFix"/>
<feGaussianBlur in="BackgroundImageFix" stdDeviation="7.5"/>
<feComposite in2="SourceAlpha" operator="in" result="effect1_backgroundBlur_558_1693"/>
<feBlend mode="normal" in="SourceGraphic" in2="effect1_backgroundBlur_558_1693" result="shape"/>
</filter>
<linearGradient id="paint0_linear_558_1693" x1="88.1313" y1="90.6522" x2="97.2293" y2="29.3871" gradientUnits="userSpaceOnUse">
<stop stop-color="#C1D5FF"/>
<stop offset="1" stop-color="white" stop-opacity="0"/>
</linearGradient>
</defs>
</svg>
