<svg width="306rem" height="490rem" viewBox="0 0 306 490" fill="none" xmlns="http://www.w3.org/2000/svg">
<rect x="1" y="0.5" width="119" height="119" rx="59.5" stroke="#472981"/>
<circle cx="60.5" cy="60" r="22" stroke="#472981" stroke-width="4"/>
<circle cx="63.6578" cy="66.9474" r="6.94737" fill="#472981"/>
<path d="M175.854 60.3536C176.049 60.1583 176.049 59.8417 175.854 59.6464L172.672 56.4645C172.476 56.2692 172.16 56.2692 171.964 56.4645C171.769 56.6597 171.769 56.9763 171.964 57.1716L174.793 60L171.964 62.8284C171.769 63.0237 171.769 63.3403 171.964 63.5355C172.16 63.7308 172.476 63.7308 172.672 63.5355L175.854 60.3536ZM130.5 60.5H175.5V59.5H130.5V60.5Z" fill="#472981"/>
<rect x="186" y="0.5" width="119" height="119" rx="59.5" stroke="#472981"/>
<circle cx="245.5" cy="60" r="22" stroke="#472981" stroke-width="4"/>
<path d="M237.584 65.1995C238.526 64.0411 239.123 62.6394 239.305 61.153C239.488 59.6666 239.249 58.1549 238.616 56.7889C237.984 55.423 236.982 54.2573 235.726 53.4239C234.469 52.5905 233.007 52.1225 231.505 52.073" stroke="#472981" stroke-width="4"/>
<path d="M240.202 47.4179C239.261 48.5776 238.667 49.9802 238.487 51.4668C238.306 52.9534 238.547 54.4648 239.181 55.8299C239.816 57.195 240.819 58.3592 242.077 59.1909C243.335 60.0225 244.798 60.4884 246.3 60.5358" stroke="#472981" stroke-width="4"/>
<path d="M244.071 69.8542C245.547 70.0772 247.058 69.8784 248.43 69.2802C249.803 68.682 250.984 67.7083 251.839 66.4693C252.694 65.2303 253.189 63.7755 253.268 62.2695C253.347 60.7635 253.007 59.2664 252.286 57.9477" stroke="#472981" stroke-width="4"/>
<path d="M260.716 63.0728C259.239 62.8518 257.729 63.0528 256.357 63.6529C254.985 64.2531 253.805 65.2284 252.952 66.4686C252.099 67.7088 251.606 69.1644 251.529 70.6705C251.452 72.1766 251.794 73.6732 252.517 74.9908" stroke="#472981" stroke-width="4"/>
<rect x="1" y="185.5" width="119" height="119" rx="59.5" stroke="#472981"/>
<circle cx="60.5" cy="216" r="22" stroke="#472981" stroke-width="4"/>
<circle cx="63.6578" cy="222.947" r="6.94737" fill="#472981"/>
<circle cx="24" cy="24" r="22" transform="matrix(-1 -8.74228e-08 -8.74228e-08 1 84.5 250)" stroke="#472981" stroke-width="4"/>
<circle cx="6.94737" cy="6.94737" r="6.94737" transform="matrix(-1 -8.74228e-08 -8.74228e-08 1 64.2896 274)" fill="#472981"/>
<path d="M247.146 175.354C247.342 175.549 247.658 175.549 247.854 175.354L251.036 172.172C251.231 171.976 251.231 171.66 251.036 171.464C250.84 171.269 250.524 171.269 250.328 171.464L247.5 174.293L244.672 171.464C244.476 171.269 244.16 171.269 243.964 171.464C243.769 171.66 243.769 171.976 243.964 172.172L247.146 175.354ZM247 130L247 175L248 175L248 130L247 130Z" fill="#472981"/>
<path d="M130.146 245.354C129.951 245.158 129.951 244.842 130.146 244.646L133.328 241.464C133.524 241.269 133.84 241.269 134.036 241.464C134.231 241.66 134.231 241.976 134.036 242.172L131.207 245L134.036 247.828C134.231 248.024 134.231 248.34 134.036 248.536C133.84 248.731 133.524 248.731 133.328 248.536L130.146 245.354ZM175.5 245.5H130.5V244.5H175.5V245.5Z" fill="#472981"/>
<rect x="186" y="185.5" width="119" height="119" rx="59.5" stroke="#472981"/>
<path d="M267.106 233.321C266.31 237.323 264.419 241.018 261.65 244H229.408C226.639 241.018 224.748 237.323 223.952 233.321C223.103 229.054 223.539 224.63 225.204 220.61C226.869 216.59 229.689 213.155 233.307 210.737C236.924 208.32 241.178 207.029 245.529 207.029C249.88 207.029 254.134 208.32 257.752 210.737C261.369 213.155 264.189 216.59 265.854 220.61C267.52 224.63 267.955 229.054 267.106 233.321Z" stroke="#472981" stroke-width="4"/>
<path d="M267.107 233.321C266.311 237.323 264.419 241.018 261.65 244H229.408C226.64 241.018 224.748 237.323 223.952 233.321C223.103 229.054 223.539 224.63 225.204 220.61C226.869 216.59 229.689 213.155 233.307 210.737C236.925 208.32 241.178 207.029 245.529 207.029C249.88 207.029 254.134 208.32 257.752 210.737C261.37 213.155 264.19 216.59 265.855 220.61C267.52 224.63 267.955 229.054 267.107 233.321Z" stroke="#472981" stroke-width="4"/>
<path d="M235.613 237.229C236.556 236.071 237.152 234.669 237.334 233.182C237.517 231.696 237.278 230.184 236.646 228.818C236.013 227.452 235.012 226.287 233.755 225.453C232.498 224.62 231.036 224.152 229.534 224.103" stroke="#472981" stroke-width="4"/>
<path d="M238.231 219.447C237.291 220.607 236.696 222.01 236.516 223.496C236.336 224.983 236.576 226.494 237.211 227.859C237.845 229.224 238.848 230.389 240.106 231.22C241.364 232.052 242.827 232.518 244.329 232.565" stroke="#472981" stroke-width="4"/>
<path d="M243.1 226.884C244.577 227.107 246.087 226.908 247.46 226.31C248.833 225.711 250.014 224.738 250.868 223.499C251.723 222.26 252.218 220.805 252.298 219.299C252.377 217.793 252.037 216.296 251.316 214.977" stroke="#472981" stroke-width="4"/>
<path d="M259.745 220.102C258.268 219.881 256.758 220.082 255.386 220.682C254.014 221.283 252.835 222.258 251.982 223.498C251.129 224.738 250.636 226.194 250.559 227.7C250.482 229.206 250.824 230.703 251.546 232.02" stroke="#472981" stroke-width="4"/>
<path d="M223.894 256.679C224.69 252.677 226.581 248.982 229.35 246L261.592 246C264.361 248.982 266.252 252.677 267.048 256.679C267.897 260.946 267.461 265.37 265.796 269.39C264.131 273.41 261.311 276.845 257.693 279.263C254.076 281.68 249.822 282.971 245.471 282.971C241.12 282.971 236.866 281.68 233.248 279.263C229.631 276.845 226.811 273.41 225.146 269.39C223.48 265.37 223.045 260.946 223.894 256.679Z" stroke="#472981" stroke-width="4"/>
<path d="M223.893 256.679C224.689 252.677 226.581 248.982 229.35 246L261.592 246C264.36 248.982 266.252 252.677 267.048 256.679C267.897 260.946 267.461 265.37 265.796 269.39C264.131 273.41 261.311 276.845 257.693 279.263C254.075 281.68 249.822 282.971 245.471 282.971C241.12 282.971 236.866 281.68 233.248 279.263C229.63 276.845 226.81 273.41 225.145 269.39C223.48 265.37 223.045 260.946 223.893 256.679Z" stroke="#472981" stroke-width="4"/>
<path d="M262.815 256.192C261.339 255.961 259.828 256.152 258.452 256.743C257.076 257.334 255.891 258.302 255.029 259.537C254.168 260.771 253.666 262.223 253.579 263.729C253.492 265.235 253.824 266.733 254.538 268.056" stroke="#472981" stroke-width="4"/>
<path d="M246.136 262.887C247.611 263.116 249.122 262.923 250.497 262.33C251.872 261.737 253.057 260.767 253.916 259.531C254.776 258.296 255.276 256.843 255.361 255.337C255.446 253.831 255.111 252.333 254.395 251.012" stroke="#472981" stroke-width="4"/>
<path d="M245.245 276.833C245.071 275.35 244.481 273.946 243.541 272.779C242.602 271.613 241.352 270.731 239.931 270.233C238.511 269.735 236.977 269.641 235.503 269.962C234.03 270.283 232.675 271.005 231.593 272.048" stroke="#472981" stroke-width="4"/>
<path d="M234.314 262.566C234.49 264.049 235.082 265.452 236.023 266.618C236.964 267.783 238.216 268.663 239.637 269.159C241.058 269.655 242.592 269.747 244.065 269.424C245.538 269.101 246.892 268.376 247.972 267.332" stroke="#472981" stroke-width="4"/>
<path d="M60.1464 360.354C60.3417 360.549 60.6583 360.549 60.8536 360.354L64.0355 357.172C64.2308 356.976 64.2308 356.66 64.0355 356.464C63.8403 356.269 63.5237 356.269 63.3284 356.464L60.5 359.293L57.6716 356.464C57.4763 356.269 57.1597 356.269 56.9645 356.464C56.7692 356.66 56.7692 356.976 56.9645 357.172L60.1464 360.354ZM60 315L60 360L61 360L61 315L60 315Z" fill="#472981"/>
<rect x="1" y="370.5" width="119" height="119" rx="59.5" stroke="#472981"/>
<circle cx="60.5" cy="430" r="23" stroke="#472981" stroke-width="2"/>
</svg>
