<svg width="1057rem" height="281rem" viewBox="0 0 1057 281" fill="none" xmlns="http://www.w3.org/2000/svg">
<path d="M218.354 221.354C218.549 221.158 218.549 220.842 218.354 220.646L215.172 217.464C214.976 217.269 214.66 217.269 214.464 217.464C214.269 217.66 214.269 217.976 214.464 218.172L217.293 221L214.464 223.828C214.269 224.024 214.269 224.34 214.464 224.536C214.66 224.731 214.976 224.731 215.172 224.536L218.354 221.354ZM26 221.5H218V220.5H26V221.5ZM72 0.5H26V1.5H72V0.5ZM0.5 26V196H1.5V26H0.5ZM26 0.5C11.9167 0.5 0.5 11.9167 0.5 26H1.5C1.5 12.469 12.469 1.5 26 1.5V0.5ZM26 220.5C12.469 220.5 1.5 209.531 1.5 196H0.5C0.5 210.083 11.9167 221.5 26 221.5V220.5Z" fill="#472981"/>
<rect x="225.5" y="161.5" width="119" height="119" rx="59.5" stroke="#472981"/>
<circle cx="285" cy="221" r="22" stroke="#472981" stroke-width="4"/>
<circle cx="288.158" cy="227.947" r="6.94737" fill="#472981"/>
<path d="M396.854 221.354C397.049 221.158 397.049 220.842 396.854 220.646L393.672 217.464C393.476 217.269 393.16 217.269 392.964 217.464C392.769 217.66 392.769 217.976 392.964 218.172L395.793 221L392.964 223.828C392.769 224.024 392.769 224.34 392.964 224.536C393.16 224.731 393.476 224.731 393.672 224.536L396.854 221.354ZM351.5 221.5H396.5V220.5H351.5V221.5Z" fill="#472981"/>
<rect x="403.5" y="161.5" width="119" height="119" rx="59.5" stroke="#472981"/>
<circle cx="463" cy="221" r="22" stroke="#472981" stroke-width="4"/>
<path d="M455.084 226.199C456.026 225.041 456.623 223.639 456.805 222.153C456.988 220.667 456.749 219.155 456.116 217.789C455.484 216.423 454.482 215.257 453.226 214.424C451.969 213.59 450.507 213.123 449.005 213.073" stroke="#472981" stroke-width="4"/>
<path d="M457.702 208.418C456.761 209.578 456.167 210.98 455.987 212.467C455.806 213.953 456.047 215.465 456.682 216.83C457.316 218.195 458.319 219.359 459.577 220.191C460.835 221.023 462.298 221.488 463.8 221.536" stroke="#472981" stroke-width="4"/>
<path d="M461.571 230.854C463.047 231.077 464.557 230.878 465.93 230.28C467.303 229.682 468.484 228.708 469.339 227.469C470.194 226.23 470.689 224.775 470.768 223.269C470.847 221.763 470.507 220.266 469.786 218.948" stroke="#472981" stroke-width="4"/>
<path d="M478.215 224.073C476.739 223.852 475.229 224.053 473.857 224.653C472.485 225.253 471.305 226.228 470.452 227.469C469.599 228.709 469.106 230.164 469.029 231.67C468.952 233.177 469.294 234.673 470.017 235.991" stroke="#472981" stroke-width="4"/>
<path d="M574.854 221.354C575.049 221.158 575.049 220.842 574.854 220.646L571.672 217.464C571.476 217.269 571.16 217.269 570.964 217.464C570.769 217.66 570.769 217.976 570.964 218.172L573.793 221L570.964 223.828C570.769 224.024 570.769 224.34 570.964 224.536C571.16 224.731 571.476 224.731 571.672 224.536L574.854 221.354ZM529.5 221.5H574.5V220.5H529.5V221.5Z" fill="#472981"/>
<rect x="581.5" y="161.5" width="119" height="119" rx="59.5" stroke="#472981"/>
<path d="M662.606 209.321C661.81 213.323 659.919 217.018 657.15 220H624.908C622.139 217.018 620.248 213.323 619.452 209.321C618.603 205.054 619.039 200.63 620.704 196.61C622.369 192.59 625.189 189.155 628.806 186.737C632.424 184.32 636.678 183.029 641.029 183.029C645.38 183.029 649.634 184.32 653.252 186.737C656.869 189.155 659.689 192.59 661.354 196.61C663.019 200.63 663.455 205.054 662.606 209.321Z" stroke="#472981" stroke-width="4"/>
<path d="M662.607 209.321C661.811 213.323 659.919 217.018 657.15 220H624.908C622.14 217.018 620.248 213.323 619.452 209.321C618.603 205.054 619.039 200.63 620.704 196.61C622.369 192.59 625.189 189.155 628.807 186.737C632.425 184.32 636.678 183.029 641.029 183.029C645.38 183.029 649.634 184.32 653.252 186.737C656.87 189.155 659.69 192.59 661.355 196.61C663.02 200.63 663.455 205.054 662.607 209.321Z" stroke="#472981" stroke-width="4"/>
<path d="M631.113 213.229C632.056 212.071 632.652 210.669 632.834 209.182C633.017 207.696 632.778 206.184 632.146 204.818C631.513 203.452 630.512 202.287 629.255 201.453C627.998 200.62 626.536 200.152 625.034 200.103" stroke="#472981" stroke-width="4"/>
<path d="M633.732 195.447C632.791 196.607 632.196 198.01 632.016 199.496C631.836 200.983 632.076 202.494 632.711 203.859C633.345 205.224 634.348 206.389 635.606 207.22C636.864 208.052 638.327 208.518 639.829 208.565" stroke="#472981" stroke-width="4"/>
<path d="M638.6 202.884C640.077 203.107 641.587 202.908 642.96 202.31C644.333 201.711 645.513 200.738 646.368 199.499C647.223 198.26 647.718 196.805 647.797 195.299C647.877 193.793 647.536 192.296 646.816 190.977" stroke="#472981" stroke-width="4"/>
<path d="M655.245 196.102C653.768 195.881 652.258 196.082 650.886 196.682C649.514 197.283 648.335 198.258 647.482 199.498C646.628 200.738 646.135 202.194 646.058 203.7C645.982 205.206 646.324 206.703 647.046 208.02" stroke="#472981" stroke-width="4"/>
<path d="M619.394 232.679C620.19 228.677 622.081 224.982 624.85 222L657.092 222C659.861 224.982 661.752 228.677 662.548 232.679C663.397 236.946 662.961 241.37 661.296 245.39C659.631 249.41 656.811 252.845 653.194 255.263C649.576 257.68 645.322 258.971 640.971 258.971C636.62 258.971 632.366 257.68 628.748 255.263C625.131 252.845 622.311 249.41 620.646 245.39C618.981 241.37 618.545 236.946 619.394 232.679Z" stroke="#472981" stroke-width="4"/>
<path d="M619.393 232.679C620.189 228.677 622.081 224.982 624.85 222L657.092 222C659.86 224.982 661.752 228.677 662.548 232.679C663.397 236.946 662.961 241.37 661.296 245.39C659.631 249.41 656.811 252.845 653.193 255.263C649.575 257.68 645.322 258.971 640.971 258.971C636.62 258.971 632.366 257.68 628.748 255.263C625.13 252.845 622.31 249.41 620.645 245.39C618.98 241.37 618.545 236.946 619.393 232.679Z" stroke="#472981" stroke-width="4"/>
<path d="M658.315 232.192C656.84 231.961 655.328 232.152 653.952 232.743C652.576 233.334 651.391 234.302 650.529 235.537C649.668 236.771 649.166 238.223 649.079 239.729C648.992 241.235 649.325 242.733 650.038 244.056" stroke="#472981" stroke-width="4"/>
<path d="M641.635 238.887C643.111 239.116 644.622 238.923 645.997 238.33C647.372 237.737 648.557 236.767 649.416 235.531C650.276 234.296 650.776 232.843 650.861 231.337C650.946 229.831 650.611 228.333 649.895 227.012" stroke="#472981" stroke-width="4"/>
<path d="M640.745 252.833C640.571 251.35 639.981 249.946 639.042 248.779C638.102 247.613 636.852 246.731 635.431 246.233C634.011 245.735 632.477 245.641 631.003 245.962C629.53 246.283 628.175 247.005 627.093 248.048" stroke="#472981" stroke-width="4"/>
<path d="M629.814 238.566C629.99 240.049 630.582 241.452 631.523 242.618C632.464 243.783 633.716 244.663 635.137 245.159C636.558 245.655 638.092 245.747 639.565 245.424C641.039 245.101 642.392 244.376 643.472 243.332" stroke="#472981" stroke-width="4"/>
<path d="M752.854 221.354C753.049 221.158 753.049 220.842 752.854 220.646L749.672 217.464C749.476 217.269 749.16 217.269 748.964 217.464C748.769 217.66 748.769 217.976 748.964 218.172L751.793 221L748.964 223.828C748.769 224.024 748.769 224.34 748.964 224.536C749.16 224.731 749.476 224.731 749.672 224.536L752.854 221.354ZM707.5 221.5H752.5V220.5H707.5V221.5Z" fill="#472981"/>
<rect x="759.5" y="161.5" width="119" height="119" rx="59.5" stroke="#472981"/>
<circle cx="819" cy="192" r="22" stroke="#472981" stroke-width="4"/>
<circle cx="822.158" cy="198.947" r="6.94737" fill="#472981"/>
<circle cx="24" cy="24" r="22" transform="matrix(-1 -8.74228e-08 -8.74228e-08 1 843 226)" stroke="#472981" stroke-width="4"/>
<circle cx="6.94737" cy="6.94737" r="6.94737" transform="matrix(-1 -8.74228e-08 -8.74228e-08 1 822.789 250)" fill="#472981"/>
<path d="M930.854 221.354C931.049 221.158 931.049 220.842 930.854 220.646L927.672 217.464C927.476 217.269 927.16 217.269 926.964 217.464C926.769 217.66 926.769 217.976 926.964 218.172L929.793 221L926.964 223.828C926.769 224.024 926.769 224.34 926.964 224.536C927.16 224.731 927.476 224.731 927.672 224.536L930.854 221.354ZM885.5 221.5H930.5V220.5H885.5V221.5Z" fill="#472981"/>
<rect x="937.5" y="161.5" width="119" height="119" rx="59.5" stroke="#472981"/>
<circle cx="997" cy="221" r="23" stroke="#472981" stroke-width="2"/>
</svg>
