<svg width="320rem" height="525rem" viewBox="0 0 320 525" fill="none" xmlns="http://www.w3.org/2000/svg">
<circle cx="155.5" cy="237.5" r="77.5" fill="#C466DB"/>
<path d="M121.368 221.4H126.12C129.162 221.4 131.556 222.372 131.556 225.63C131.556 228.888 129.162 229.86 126.12 229.86H124.068V234H121.368V221.4ZM128.802 225.63C128.802 224.136 127.632 223.776 126.246 223.776H124.068V227.484H126.246C127.632 227.484 128.802 227.106 128.802 225.63ZM140.509 231.768C140.509 232.218 140.797 232.344 141.121 232.344C141.265 232.344 141.427 232.326 141.589 232.272V233.91C141.193 234.054 140.689 234.162 140.203 234.162C139.321 234.162 138.655 233.838 138.295 233.19C137.449 233.856 136.459 234.252 135.181 234.252C133.561 234.252 132.157 233.316 132.157 231.606C132.157 229.41 134.227 228.726 135.955 228.726C136.639 228.726 137.395 228.816 138.007 228.96V228.654C138.007 227.79 137.323 227.196 135.973 227.196C134.785 227.196 133.723 227.52 132.913 227.844V225.684C133.615 225.45 134.929 225.108 136.261 225.108C138.853 225.108 140.509 226.17 140.509 229.014V231.768ZM136.531 230.22C135.613 230.22 134.713 230.526 134.713 231.408C134.713 232.056 135.307 232.47 136.063 232.47C136.765 232.47 137.431 232.272 138.007 231.768V230.418C137.629 230.328 137.053 230.22 136.531 230.22ZM145.431 234H142.929V225.36H145.431V228.582H146.475L148.671 225.36H151.479L148.509 229.626L151.731 234H148.923L146.439 230.58H145.431V234ZM151.847 229.68C151.847 226.656 154.115 225.108 156.617 225.108C159.137 225.108 161.387 226.656 161.387 229.68C161.387 232.704 159.137 234.252 156.617 234.252C154.115 234.252 151.847 232.704 151.847 229.68ZM158.849 229.68C158.849 228.348 158.057 227.34 156.617 227.34C155.195 227.34 154.403 228.348 154.403 229.68C154.403 231.012 155.195 232.02 156.617 232.02C158.057 232.02 158.849 231.012 158.849 229.68ZM168.313 234H163.021V225.36H168.169C170.221 225.36 171.013 226.476 171.013 227.646C171.013 228.636 170.527 229.302 169.681 229.626C170.617 229.932 171.211 230.616 171.211 231.66C171.211 232.884 170.491 234 168.313 234ZM165.523 230.418V232.29H167.575C168.205 232.29 168.727 232.056 168.727 231.372C168.727 230.634 168.187 230.418 167.575 230.418H165.523ZM165.505 227.07V228.906H167.413C168.007 228.906 168.493 228.672 168.493 228.006C168.493 227.286 167.971 227.07 167.395 227.07H165.505ZM180.622 231.768C180.622 232.218 180.91 232.344 181.234 232.344C181.378 232.344 181.54 232.326 181.702 232.272V233.91C181.306 234.054 180.802 234.162 180.316 234.162C179.434 234.162 178.768 233.838 178.408 233.19C177.562 233.856 176.572 234.252 175.294 234.252C173.674 234.252 172.27 233.316 172.27 231.606C172.27 229.41 174.34 228.726 176.068 228.726C176.752 228.726 177.508 228.816 178.12 228.96V228.654C178.12 227.79 177.436 227.196 176.086 227.196C174.898 227.196 173.836 227.52 173.026 227.844V225.684C173.728 225.45 175.042 225.108 176.374 225.108C178.966 225.108 180.622 226.17 180.622 229.014V231.768ZM176.644 230.22C175.726 230.22 174.826 230.526 174.826 231.408C174.826 232.056 175.42 232.47 176.176 232.47C176.878 232.47 177.544 232.272 178.12 231.768V230.418C177.742 230.328 177.166 230.22 176.644 230.22ZM185.094 234H182.286L184.554 231.102C183.384 230.598 182.79 229.554 182.79 228.384C182.79 226.764 183.978 225.36 186.246 225.36H190.926V234H188.424V231.426H187.02L185.094 234ZM185.328 228.456C185.328 229.158 185.85 229.554 186.75 229.554H188.424V227.34H186.75C185.85 227.34 185.328 227.736 185.328 228.456ZM130.217 257H127.715V248.36H130.217V251.582H131.261L133.457 248.36H136.265L133.295 252.626L136.517 257H133.709L131.225 253.58H130.217V257ZM141.411 250.34C141.159 254.228 140.493 257.18 138.117 257.18C137.721 257.18 137.253 257.108 136.749 256.928V254.948C136.929 255.02 137.109 255.056 137.271 255.056C138.639 255.056 138.945 252.23 139.107 248.36H146.127V257H143.625V250.34H141.411ZM147.761 252.68C147.761 249.422 150.263 248.108 152.207 248.108C155.789 248.108 156.941 250.934 156.365 253.49H150.281C150.569 254.75 151.901 255.272 153.323 255.272C154.313 255.272 155.195 255.074 155.933 254.75V256.712C155.123 257.054 154.061 257.252 152.765 257.252C150.029 257.252 147.761 255.686 147.761 252.68ZM154.115 251.87C154.205 251.276 153.863 250.016 152.297 250.016C151.235 250.016 150.299 250.682 150.263 251.87H154.115ZM162.414 257H159.93V250.466H157.176V248.36H165.168V250.466H162.414V257ZM169.012 257H166.51V248.36H169.012V251.582H170.056L172.252 248.36H175.06L172.09 252.626L175.312 257H172.504L170.02 253.58H169.012V257ZM183.988 254.768C183.988 255.218 184.276 255.344 184.6 255.344C184.744 255.344 184.906 255.326 185.068 255.272V256.91C184.672 257.054 184.168 257.162 183.682 257.162C182.8 257.162 182.134 256.838 181.774 256.19C180.928 256.856 179.938 257.252 178.66 257.252C177.04 257.252 175.636 256.316 175.636 254.606C175.636 252.41 177.706 251.726 179.434 251.726C180.118 251.726 180.874 251.816 181.486 251.96V251.654C181.486 250.79 180.802 250.196 179.452 250.196C178.264 250.196 177.202 250.52 176.392 250.844V248.684C177.094 248.45 178.408 248.108 179.74 248.108C182.332 248.108 183.988 249.17 183.988 252.014V254.768ZM180.01 253.22C179.092 253.22 178.192 253.526 178.192 254.408C178.192 255.056 178.786 255.47 179.542 255.47C180.244 255.47 180.91 255.272 181.486 254.768V253.418C181.108 253.328 180.532 253.22 180.01 253.22Z" fill="#F8F9FB"/>
<circle cx="155.5" cy="237.5" r="91" stroke="#472981"/>
<circle cx="63.5" cy="63.5" r="63" stroke="#472981"/>
<circle cx="266.5" cy="92.5" r="53" stroke="#472981"/>
<circle cx="258.5" cy="400.5" r="61" stroke="#472981"/>
<path d="M10.2549 58.8H19.5189V60.96H16.0789V70H13.6949V60.96H10.2549V58.8ZM19.5675 65.168H25.5195V67.04H19.5675V65.168ZM30.4458 64.08C30.2218 67.536 29.6298 70.16 27.5178 70.16C27.1658 70.16 26.7498 70.096 26.3018 69.936V68.176C26.4618 68.24 26.6217 68.272 26.7658 68.272C27.9818 68.272 28.2538 65.76 28.3978 62.32H34.6378V70H32.4138V64.08H30.4458ZM38.4581 70H36.5221V62.32H38.7461V66.64L42.1701 62.32H44.0901V70H41.8821V65.68L38.4581 70ZM48.1353 70H45.9753V62.32H48.1033L50.4873 66.128L52.8873 62.32H54.9993V70H52.8553V65.472L51.0473 68.336H49.9433L48.1353 65.472V70ZM62.9775 73.52H60.8655V70.224C58.3215 70.128 56.4335 68.608 56.4335 66.16C56.4335 63.712 58.3215 62.192 60.8655 62.096V58.8H62.9775V62.096C65.5215 62.192 67.4095 63.712 67.4095 66.16C67.4095 68.608 65.5215 70.128 62.9775 70.224V73.52ZM58.6575 66.16C58.6575 67.312 59.3935 68.288 60.8815 68.368V63.952C59.3935 64.032 58.6575 65.008 58.6575 66.16ZM62.9935 63.952V68.368C64.4815 68.288 65.2175 67.312 65.2175 66.16C65.2175 65.008 64.4815 64.032 62.9935 63.952ZM68.4183 66.16C68.4183 63.472 70.4343 62.096 72.6583 62.096C74.8983 62.096 76.8983 63.472 76.8983 66.16C76.8983 68.848 74.8983 70.224 72.6583 70.224C70.4343 70.224 68.4183 68.848 68.4183 66.16ZM74.6423 66.16C74.6423 64.976 73.9383 64.08 72.6583 64.08C71.3943 64.08 70.6903 64.976 70.6903 66.16C70.6903 67.344 71.3943 68.24 72.6583 68.24C73.9383 68.24 74.6423 67.344 74.6423 66.16ZM86.9743 72.032H84.9263V70H78.3503V62.32H80.5743V68.128H83.5983V62.32H85.8223V68.176H86.9743V72.032ZM90.3019 70H88.3659V62.32H90.5899V66.64L94.0139 62.32H95.9339V70H93.7259V65.68L90.3019 70ZM101.787 70H99.579V64.192H97.131V62.32H104.235V64.192H101.787V70ZM109.428 70H105.428V62.32H107.652V64.72H109.428C111.444 64.72 112.532 65.888 112.532 67.36C112.532 68.832 111.444 70 109.428 70ZM107.636 66.32V68.4H108.884C109.764 68.4 110.244 68.016 110.244 67.36C110.244 66.704 109.764 66.32 108.884 66.32H107.636ZM116.004 70H113.78V62.32H116.004V70Z" fill="#472981"/>
<circle cx="79" cy="446" r="78.5" stroke="#472981"/>
<path d="M26.1136 442.16C26.1136 439.264 28.3376 438.096 30.0656 438.096C33.2496 438.096 34.2736 440.608 33.7616 442.88H28.3536C28.6096 444 29.7936 444.464 31.0576 444.464C31.9376 444.464 32.7216 444.288 33.3776 444V445.744C32.6576 446.048 31.7136 446.224 30.5616 446.224C28.1296 446.224 26.1136 444.832 26.1136 442.16ZM31.7616 441.44C31.8416 440.912 31.5376 439.792 30.1456 439.792C29.2016 439.792 28.3696 440.384 28.3376 441.44H31.7616ZM34.8323 442.272C34.8323 439.328 37.0403 438.08 39.1683 438.08C40.0163 438.08 40.8483 438.272 41.5363 438.64V440.592C40.9923 440.24 40.2243 440.016 39.4883 440.016C38.2723 440.016 37.1043 440.608 37.1043 442.16C37.1043 443.632 38.2563 444.304 39.4563 444.304C40.2723 444.304 41.0563 444.08 41.6163 443.744V445.712C40.8643 446.032 40.0003 446.224 39.0243 446.224C36.9283 446.224 34.8323 445.008 34.8323 442.272ZM47.1229 446H44.9149V440.192H42.4669V438.32H49.5709V440.192H47.1229V446ZM50.1292 442.16C50.1292 439.264 52.3532 438.096 54.0812 438.096C57.2652 438.096 58.2892 440.608 57.7772 442.88H52.3692C52.6252 444 53.8092 444.464 55.0732 444.464C55.9532 444.464 56.7372 444.288 57.3932 444V445.744C56.6732 446.048 55.7292 446.224 54.5772 446.224C52.1452 446.224 50.1292 444.832 50.1292 442.16ZM55.7772 441.44C55.8572 440.912 55.5532 439.792 54.1612 439.792C53.2172 439.792 52.3852 440.384 52.3532 441.44H55.7772ZM58.8479 442.272C58.8479 439.328 61.0559 438.08 63.1839 438.08C64.0319 438.08 64.8639 438.272 65.5519 438.64V440.592C65.0079 440.24 64.2399 440.016 63.5039 440.016C62.2879 440.016 61.1199 440.608 61.1199 442.16C61.1199 443.632 62.2719 444.304 63.4719 444.304C64.2879 444.304 65.0719 444.08 65.6319 443.744V445.712C64.8799 446.032 64.0159 446.224 63.0399 446.224C60.9439 446.224 58.8479 445.008 58.8479 442.272ZM71.1386 446H68.9306V440.192H66.4826V438.32H73.5866V440.192H71.1386V446ZM79.4839 446H74.7799V438.32H79.3559C81.1799 438.32 81.8839 439.312 81.8839 440.352C81.8839 441.232 81.4519 441.824 80.6999 442.112C81.5319 442.384 82.0599 442.992 82.0599 443.92C82.0599 445.008 81.4199 446 79.4839 446ZM77.0039 442.816V444.48H78.8279C79.3879 444.48 79.8519 444.272 79.8519 443.664C79.8519 443.008 79.3719 442.816 78.8279 442.816H77.0039ZM76.9879 439.84V441.472H78.6839C79.2119 441.472 79.6439 441.264 79.6439 440.672C79.6439 440.032 79.1799 439.84 78.6679 439.84H76.9879ZM83.1292 442.16C83.1292 439.264 85.3532 438.096 87.0812 438.096C90.2652 438.096 91.2892 440.608 90.7772 442.88H85.3692C85.6252 444 86.8092 444.464 88.0732 444.464C88.9532 444.464 89.7372 444.288 90.3932 444V445.744C89.6732 446.048 88.7292 446.224 87.5772 446.224C85.1452 446.224 83.1292 444.832 83.1292 442.16ZM88.7772 441.44C88.8572 440.912 88.5532 439.792 87.1612 439.792C86.2172 439.792 85.3852 440.384 85.3532 441.44H88.7772ZM94.5039 446H92.2799V438.32H94.5039V441.232H97.6079V438.32H99.8319V446H97.6079V443.088H94.5039V446ZM103.941 446H101.717V438.32H103.941V441.232H107.045V438.32H109.269V446H107.045V443.088H103.941V446ZM115.155 446H111.155V438.32H113.379V440.72H115.155C117.171 440.72 118.259 441.888 118.259 443.36C118.259 444.832 117.171 446 115.155 446ZM113.363 442.32V444.4H114.611C115.491 444.4 115.971 444.016 115.971 443.36C115.971 442.704 115.491 442.32 114.611 442.32H113.363ZM121.731 446H119.507V438.32H121.731V446ZM123.192 442.16C123.192 439.264 125.416 438.096 127.144 438.096C130.328 438.096 131.352 440.608 130.84 442.88H125.432C125.688 444 126.872 444.464 128.136 444.464C129.016 444.464 129.8 444.288 130.456 444V445.744C129.736 446.048 128.792 446.224 127.64 446.224C125.208 446.224 123.192 444.832 123.192 442.16ZM128.84 441.44C128.92 440.912 128.616 439.792 127.224 439.792C126.28 439.792 125.448 440.384 125.416 441.44H128.84ZM47.5039 467H45.2799V459.32H47.5039V462.184H48.4319L50.3839 459.32H52.8799L50.2399 463.112L53.1039 467H50.6079L48.3999 463.96H47.5039V467ZM55.9816 467H54.0456V459.32H56.2696V463.64L59.6936 459.32H61.6136V467H59.4056V462.68L55.9816 467ZM66.9067 461.08C66.6827 464.536 66.0907 467.16 63.9787 467.16C63.6267 467.16 63.2107 467.096 62.7627 466.936V465.176C62.9227 465.24 63.0827 465.272 63.2267 465.272C64.4427 465.272 64.7147 462.76 64.8587 459.32H71.0987V467H68.8747V461.08H66.9067ZM76.3911 461.08C76.1671 464.536 75.5751 467.16 73.4631 467.16C73.1111 467.16 72.6951 467.096 72.2471 466.936V465.176C72.4071 465.24 72.5671 465.272 72.7111 465.272C73.9271 465.272 74.1991 462.76 74.3431 459.32H80.5831V467H78.3591V461.08H76.3911ZM82.0354 463.16C82.0354 460.264 84.2594 459.096 85.9874 459.096C89.1714 459.096 90.1954 461.608 89.6834 463.88H84.2754C84.5314 465 85.7154 465.464 86.9794 465.464C87.8594 465.464 88.6434 465.288 89.2994 465V466.744C88.5794 467.048 87.6354 467.224 86.4834 467.224C84.0514 467.224 82.0354 465.832 82.0354 463.16ZM87.6834 462.44C87.7634 461.912 87.4594 460.792 86.0674 460.792C85.1234 460.792 84.2914 461.384 84.2594 462.44H87.6834ZM93.1542 460.44C93.6342 459.752 94.5142 459.096 95.9382 459.096C98.3702 459.096 99.6822 461.064 99.6822 463.16C99.6822 465.256 98.3702 467.224 95.9382 467.224C94.7222 467.224 93.9062 466.728 93.4102 466.184V470.52H91.1862V459.32H93.1542V460.44ZM97.4102 463.16C97.4102 461.96 96.6582 460.968 95.3942 460.968C94.4182 460.968 93.6982 461.576 93.3942 462.248V464.072C93.6982 464.744 94.4182 465.352 95.3942 465.352C96.6582 465.352 97.4102 464.36 97.4102 463.16ZM105.139 467H101.139V459.32H103.363V461.72H105.139C107.155 461.72 108.243 462.888 108.243 464.36C108.243 465.832 107.155 467 105.139 467ZM103.347 463.32V465.4H104.595C105.475 465.4 105.955 465.016 105.955 464.36C105.955 463.704 105.475 463.32 104.595 463.32H103.347ZM111.715 467H109.491V459.32H111.715V467Z" fill="#472981"/>
<path d="M212.634 403.032H210.586V399.304H211.658C212.586 397.688 212.826 395.752 212.778 393.32H219.098V399.304H220.25V403.032H218.202V401H212.634V403.032ZM214.826 395.016C214.762 396.824 214.538 398.056 213.962 399.304H216.89V395.016H214.826ZM221.028 397.16C221.028 394.264 223.252 393.096 224.98 393.096C228.164 393.096 229.188 395.608 228.676 397.88H223.268C223.524 399 224.708 399.464 225.972 399.464C226.852 399.464 227.636 399.288 228.292 399V400.744C227.572 401.048 226.628 401.224 225.476 401.224C223.044 401.224 221.028 399.832 221.028 397.16ZM226.676 396.44C226.756 395.912 226.452 394.792 225.06 394.792C224.116 394.792 223.284 395.384 223.252 396.44H226.676ZM232.402 401H230.178V393.32H232.402V396.232H235.506V393.32H237.73V401H235.506V398.088H232.402V401ZM241.056 403.032H239.008V399.304H240.08C241.008 397.688 241.248 395.752 241.2 393.32H247.52V399.304H248.672V403.032H246.624V401H241.056V403.032ZM243.248 395.016C243.184 396.824 242.96 398.056 242.384 399.304H245.312V395.016H243.248ZM252.021 394.44C252.501 393.752 253.381 393.096 254.805 393.096C257.237 393.096 258.549 395.064 258.549 397.16C258.549 399.256 257.237 401.224 254.805 401.224C253.589 401.224 252.773 400.728 252.277 400.184V404.52H250.053V393.32H252.021V394.44ZM256.277 397.16C256.277 395.96 255.525 394.968 254.261 394.968C253.285 394.968 252.565 395.576 252.261 396.248V398.072C252.565 398.744 253.285 399.352 254.261 399.352C255.525 399.352 256.277 398.36 256.277 397.16ZM261.943 401H260.007V393.32H262.231V397.64L265.655 393.32H267.575V401H265.367V396.68L261.943 401ZM273.428 401H271.22V395.192H268.772V393.32H275.876V395.192H273.428V401ZM279.293 401H277.069V393.32H279.293V396.232H282.397V393.32H284.621V401H282.397V398.088H279.293V401ZM290.507 401H286.507V393.32H288.731V395.72H290.507C292.523 395.72 293.611 396.888 293.611 398.36C293.611 399.832 292.523 401 290.507 401ZM288.715 397.32V399.4H289.963C290.843 399.4 291.323 399.016 291.323 398.36C291.323 397.704 290.843 397.32 289.963 397.32H288.715ZM297.083 401H294.859V393.32H297.083V401ZM298.543 397.16C298.543 394.264 300.767 393.096 302.495 393.096C305.679 393.096 306.703 395.608 306.191 397.88H300.783C301.039 399 302.223 399.464 303.487 399.464C304.367 399.464 305.151 399.288 305.807 399V400.744C305.087 401.048 304.143 401.224 302.991 401.224C300.559 401.224 298.543 399.832 298.543 397.16ZM304.191 396.44C304.271 395.912 303.967 394.792 302.575 394.792C301.631 394.792 300.799 395.384 300.767 396.44H304.191ZM235.316 422H233.092V414.32H235.316V417.184H236.244L238.196 414.32H240.692L238.052 418.112L240.916 422H238.42L236.212 418.96H235.316V422ZM245.266 416.08C245.042 419.536 244.45 422.16 242.338 422.16C241.986 422.16 241.57 422.096 241.122 421.936V420.176C241.282 420.24 241.442 420.272 241.586 420.272C242.802 420.272 243.074 417.76 243.218 414.32H249.458V422H247.234V416.08H245.266ZM250.91 418.16C250.91 415.264 253.134 414.096 254.862 414.096C258.046 414.096 259.07 416.608 258.558 418.88H253.15C253.406 420 254.59 420.464 255.854 420.464C256.734 420.464 257.518 420.288 258.174 420V421.744C257.454 422.048 256.51 422.224 255.358 422.224C252.926 422.224 250.91 420.832 250.91 418.16ZM256.558 417.44C256.638 416.912 256.334 415.792 254.942 415.792C253.998 415.792 253.166 416.384 253.134 417.44H256.558ZM263.935 422H261.727V416.192H259.279V414.32H266.383V416.192H263.935V422ZM269.801 422H267.577V414.32H269.801V417.184H270.729L272.681 414.32H275.177L272.537 418.112L275.401 422H272.905L270.697 418.96H269.801V422ZM278.278 422H276.342V414.32H278.566V418.64L281.99 414.32H283.91V422H281.702V417.68L278.278 422Z" fill="#472981"/>
<path d="M226.292 97H224.132V89.32H226.26L228.644 93.128L231.044 89.32H233.156V97H231.012V92.472L229.204 95.336H228.1L226.292 92.472V97ZM241.902 95.016C241.902 95.416 242.158 95.528 242.446 95.528C242.574 95.528 242.718 95.512 242.862 95.464V96.92C242.51 97.048 242.062 97.144 241.63 97.144C240.846 97.144 240.254 96.856 239.934 96.28C239.182 96.872 238.302 97.224 237.166 97.224C235.726 97.224 234.478 96.392 234.478 94.872C234.478 92.92 236.318 92.312 237.854 92.312C238.462 92.312 239.134 92.392 239.678 92.52V92.248C239.678 91.48 239.07 90.952 237.87 90.952C236.814 90.952 235.87 91.24 235.15 91.528V89.608C235.774 89.4 236.942 89.096 238.126 89.096C240.43 89.096 241.902 90.04 241.902 92.568V95.016ZM238.366 93.64C237.55 93.64 236.75 93.912 236.75 94.696C236.75 95.272 237.278 95.64 237.95 95.64C238.574 95.64 239.166 95.464 239.678 95.016V93.816C239.342 93.736 238.83 93.64 238.366 93.64ZM246.277 97H244.053V89.32H246.277V92.184H247.205L249.157 89.32H251.653L249.013 93.112L251.877 97H249.381L247.173 93.96H246.277V97ZM254.787 90.44C255.267 89.752 256.147 89.096 257.571 89.096C260.003 89.096 261.315 91.064 261.315 93.16C261.315 95.256 260.003 97.224 257.571 97.224C256.355 97.224 255.539 96.728 255.043 96.184V100.52H252.819V89.32H254.787V90.44ZM259.043 93.16C259.043 91.96 258.291 90.968 257.027 90.968C256.051 90.968 255.331 91.576 255.027 92.248V94.072C255.331 94.744 256.051 95.352 257.027 95.352C258.291 95.352 259.043 94.36 259.043 93.16ZM262.34 93.16C262.34 90.472 264.356 89.096 266.58 89.096C268.82 89.096 270.82 90.472 270.82 93.16C270.82 95.848 268.82 97.224 266.58 97.224C264.356 97.224 262.34 95.848 262.34 93.16ZM268.564 93.16C268.564 91.976 267.86 91.08 266.58 91.08C265.316 91.08 264.612 91.976 264.612 93.16C264.612 94.344 265.316 95.24 266.58 95.24C267.86 95.24 268.564 94.344 268.564 93.16ZM278.368 100.52H276.256V97.224C273.712 97.128 271.824 95.608 271.824 93.16C271.824 90.712 273.712 89.192 276.256 89.096V85.8H278.368V89.096C280.912 89.192 282.8 90.712 282.8 93.16C282.8 95.608 280.912 97.128 278.368 97.224V100.52ZM274.048 93.16C274.048 94.312 274.784 95.288 276.272 95.368V90.952C274.784 91.032 274.048 92.008 274.048 93.16ZM278.384 90.952V95.368C279.872 95.288 280.608 94.312 280.608 93.16C280.608 92.008 279.872 91.032 278.384 90.952ZM291.105 95.016C291.105 95.416 291.361 95.528 291.649 95.528C291.777 95.528 291.921 95.512 292.065 95.464V96.92C291.713 97.048 291.265 97.144 290.833 97.144C290.049 97.144 289.457 96.856 289.137 96.28C288.385 96.872 287.505 97.224 286.369 97.224C284.929 97.224 283.681 96.392 283.681 94.872C283.681 92.92 285.521 92.312 287.057 92.312C287.665 92.312 288.337 92.392 288.881 92.52V92.248C288.881 91.48 288.273 90.952 287.073 90.952C286.017 90.952 285.073 91.24 284.353 91.528V89.608C284.977 89.4 286.145 89.096 287.329 89.096C289.633 89.096 291.105 90.04 291.105 92.568V95.016ZM287.569 93.64C286.753 93.64 285.953 93.912 285.953 94.696C285.953 95.272 286.481 95.64 287.153 95.64C287.777 95.64 288.369 95.464 288.881 95.016V93.816C288.545 93.736 288.033 93.64 287.569 93.64ZM295.481 97H293.257V89.32H299.113V91.192H295.481V97ZM302.239 97H300.303V89.32H302.527V93.64L305.951 89.32H307.871V97H305.663V92.68L302.239 97Z" fill="#472981"/>
<path d="M110.478 154.147C110.397 154.411 110.117 154.559 109.853 154.478L105.552 153.155C105.288 153.073 105.14 152.794 105.221 152.53C105.302 152.266 105.582 152.118 105.846 152.199L109.669 153.375L110.845 149.552C110.927 149.288 111.206 149.14 111.47 149.221C111.734 149.302 111.882 149.582 111.801 149.846L110.478 154.147ZM92.4419 119.766L110.442 153.766L109.558 154.234L91.5581 120.234L92.4419 119.766Z" fill="#472981"/>
<path d="M120.785 328.549C121.034 328.43 121.332 328.535 121.451 328.785L123.389 332.846C123.508 333.095 123.403 333.394 123.154 333.513C122.904 333.631 122.606 333.526 122.487 333.277L120.764 329.667L117.154 331.389C116.905 331.508 116.606 331.403 116.488 331.154C116.369 330.904 116.474 330.606 116.723 330.487L120.785 328.549ZM105.209 372.126L120.529 328.833L121.471 329.167L106.151 372.46L105.209 372.126Z" fill="#472981"/>
<path d="M208.513 314.888C208.575 314.618 208.843 314.451 209.112 314.513L213.497 315.525C213.766 315.587 213.934 315.855 213.872 316.124C213.81 316.393 213.541 316.561 213.272 316.499L209.375 315.6L208.475 319.497C208.413 319.766 208.145 319.934 207.876 319.872C207.607 319.81 207.439 319.541 207.501 319.272L208.513 314.888ZM228.576 347.265L208.576 315.265L209.424 314.735L229.424 346.735L228.576 347.265Z" fill="#472981"/>
<path d="M209.02 160.5C208.744 160.511 208.511 160.296 208.5 160.02L208.321 155.524C208.31 155.248 208.524 155.015 208.8 155.004C209.076 154.993 209.309 155.208 209.32 155.484L209.48 159.48L213.476 159.321C213.752 159.31 213.985 159.524 213.996 159.8C214.007 160.076 213.792 160.309 213.516 160.32L209.02 160.5ZM233.367 134.339L209.367 160.339L208.633 159.661L232.633 133.661L233.367 134.339Z" fill="#472981"/>
</svg>
