<svg width="529rem" height="458rem" viewBox="0 0 529 458" fill="none" xmlns="http://www.w3.org/2000/svg">
<circle cx="259.5" cy="213.5" r="77.5" fill="#C466DB"/>
<path d="M225.368 197.4H230.12C233.162 197.4 235.556 198.372 235.556 201.63C235.556 204.888 233.162 205.86 230.12 205.86H228.068V210H225.368V197.4ZM232.802 201.63C232.802 200.136 231.632 199.776 230.246 199.776H228.068V203.484H230.246C231.632 203.484 232.802 203.106 232.802 201.63ZM244.509 207.768C244.509 208.218 244.797 208.344 245.121 208.344C245.265 208.344 245.427 208.326 245.589 208.272V209.91C245.193 210.054 244.689 210.162 244.203 210.162C243.321 210.162 242.655 209.838 242.295 209.19C241.449 209.856 240.459 210.252 239.181 210.252C237.561 210.252 236.157 209.316 236.157 207.606C236.157 205.41 238.227 204.726 239.955 204.726C240.639 204.726 241.395 204.816 242.007 204.96V204.654C242.007 203.79 241.323 203.196 239.973 203.196C238.785 203.196 237.723 203.52 236.913 203.844V201.684C237.615 201.45 238.929 201.108 240.261 201.108C242.853 201.108 244.509 202.17 244.509 205.014V207.768ZM240.531 206.22C239.613 206.22 238.713 206.526 238.713 207.408C238.713 208.056 239.307 208.47 240.063 208.47C240.765 208.47 241.431 208.272 242.007 207.768V206.418C241.629 206.328 241.053 206.22 240.531 206.22ZM249.431 210H246.929V201.36H249.431V204.582H250.475L252.671 201.36H255.479L252.509 205.626L255.731 210H252.923L250.439 206.58H249.431V210ZM255.847 205.68C255.847 202.656 258.115 201.108 260.617 201.108C263.137 201.108 265.387 202.656 265.387 205.68C265.387 208.704 263.137 210.252 260.617 210.252C258.115 210.252 255.847 208.704 255.847 205.68ZM262.849 205.68C262.849 204.348 262.057 203.34 260.617 203.34C259.195 203.34 258.403 204.348 258.403 205.68C258.403 207.012 259.195 208.02 260.617 208.02C262.057 208.02 262.849 207.012 262.849 205.68ZM272.313 210H267.021V201.36H272.169C274.221 201.36 275.013 202.476 275.013 203.646C275.013 204.636 274.527 205.302 273.681 205.626C274.617 205.932 275.211 206.616 275.211 207.66C275.211 208.884 274.491 210 272.313 210ZM269.523 206.418V208.29H271.575C272.205 208.29 272.727 208.056 272.727 207.372C272.727 206.634 272.187 206.418 271.575 206.418H269.523ZM269.505 203.07V204.906H271.413C272.007 204.906 272.493 204.672 272.493 204.006C272.493 203.286 271.971 203.07 271.395 203.07H269.505ZM284.622 207.768C284.622 208.218 284.91 208.344 285.234 208.344C285.378 208.344 285.54 208.326 285.702 208.272V209.91C285.306 210.054 284.802 210.162 284.316 210.162C283.434 210.162 282.768 209.838 282.408 209.19C281.562 209.856 280.572 210.252 279.294 210.252C277.674 210.252 276.27 209.316 276.27 207.606C276.27 205.41 278.34 204.726 280.068 204.726C280.752 204.726 281.508 204.816 282.12 204.96V204.654C282.12 203.79 281.436 203.196 280.086 203.196C278.898 203.196 277.836 203.52 277.026 203.844V201.684C277.728 201.45 279.042 201.108 280.374 201.108C282.966 201.108 284.622 202.17 284.622 205.014V207.768ZM280.644 206.22C279.726 206.22 278.826 206.526 278.826 207.408C278.826 208.056 279.42 208.47 280.176 208.47C280.878 208.47 281.544 208.272 282.12 207.768V206.418C281.742 206.328 281.166 206.22 280.644 206.22ZM289.094 210H286.286L288.554 207.102C287.384 206.598 286.79 205.554 286.79 204.384C286.79 202.764 287.978 201.36 290.246 201.36H294.926V210H292.424V207.426H291.02L289.094 210ZM289.328 204.456C289.328 205.158 289.85 205.554 290.75 205.554H292.424V203.34H290.75C289.85 203.34 289.328 203.736 289.328 204.456ZM234.217 233H231.715V224.36H234.217V227.582H235.261L237.457 224.36H240.265L237.295 228.626L240.517 233H237.709L235.225 229.58H234.217V233ZM245.411 226.34C245.159 230.228 244.493 233.18 242.117 233.18C241.721 233.18 241.253 233.108 240.749 232.928V230.948C240.929 231.02 241.109 231.056 241.271 231.056C242.639 231.056 242.945 228.23 243.107 224.36H250.127V233H247.625V226.34H245.411ZM251.761 228.68C251.761 225.422 254.263 224.108 256.207 224.108C259.789 224.108 260.941 226.934 260.365 229.49H254.281C254.569 230.75 255.901 231.272 257.323 231.272C258.313 231.272 259.195 231.074 259.933 230.75V232.712C259.123 233.054 258.061 233.252 256.765 233.252C254.029 233.252 251.761 231.686 251.761 228.68ZM258.115 227.87C258.205 227.276 257.863 226.016 256.297 226.016C255.235 226.016 254.299 226.682 254.263 227.87H258.115ZM266.414 233H263.93V226.466H261.176V224.36H269.168V226.466H266.414V233ZM273.012 233H270.51V224.36H273.012V227.582H274.056L276.252 224.36H279.06L276.09 228.626L279.312 233H276.504L274.02 229.58H273.012V233ZM287.988 230.768C287.988 231.218 288.276 231.344 288.6 231.344C288.744 231.344 288.906 231.326 289.068 231.272V232.91C288.672 233.054 288.168 233.162 287.682 233.162C286.8 233.162 286.134 232.838 285.774 232.19C284.928 232.856 283.938 233.252 282.66 233.252C281.04 233.252 279.636 232.316 279.636 230.606C279.636 228.41 281.706 227.726 283.434 227.726C284.118 227.726 284.874 227.816 285.486 227.96V227.654C285.486 226.79 284.802 226.196 283.452 226.196C282.264 226.196 281.202 226.52 280.392 226.844V224.684C281.094 224.45 282.408 224.108 283.74 224.108C286.332 224.108 287.988 225.17 287.988 228.014V230.768ZM284.01 229.22C283.092 229.22 282.192 229.526 282.192 230.408C282.192 231.056 282.786 231.47 283.542 231.47C284.244 231.47 284.91 231.272 285.486 230.768V229.418C285.108 229.328 284.532 229.22 284.01 229.22Z" fill="#F8F9FB"/>
<circle cx="259.5" cy="213.5" r="91" stroke="#472981"/>
<circle cx="63.5" cy="63.5" r="63" stroke="#472981"/>
<circle cx="413.5" cy="82.5" r="53" stroke="#472981"/>
<circle cx="143" cy="379" r="78.5" stroke="#472981"/>
<circle cx="467.5" cy="317.5" r="61" stroke="#472981"/>
<path d="M10.2549 58.8H19.5189V60.96H16.0789V70H13.6949V60.96H10.2549V58.8ZM19.5675 65.168H25.5195V67.04H19.5675V65.168ZM30.4458 64.08C30.2218 67.536 29.6298 70.16 27.5178 70.16C27.1658 70.16 26.7498 70.096 26.3018 69.936V68.176C26.4618 68.24 26.6217 68.272 26.7658 68.272C27.9818 68.272 28.2538 65.76 28.3978 62.32H34.6378V70H32.4138V64.08H30.4458ZM38.4581 70H36.5221V62.32H38.7461V66.64L42.1701 62.32H44.0901V70H41.8821V65.68L38.4581 70ZM48.1353 70H45.9753V62.32H48.1033L50.4873 66.128L52.8873 62.32H54.9993V70H52.8553V65.472L51.0473 68.336H49.9433L48.1353 65.472V70ZM62.9775 73.52H60.8655V70.224C58.3215 70.128 56.4335 68.608 56.4335 66.16C56.4335 63.712 58.3215 62.192 60.8655 62.096V58.8H62.9775V62.096C65.5215 62.192 67.4095 63.712 67.4095 66.16C67.4095 68.608 65.5215 70.128 62.9775 70.224V73.52ZM58.6575 66.16C58.6575 67.312 59.3935 68.288 60.8815 68.368V63.952C59.3935 64.032 58.6575 65.008 58.6575 66.16ZM62.9935 63.952V68.368C64.4815 68.288 65.2175 67.312 65.2175 66.16C65.2175 65.008 64.4815 64.032 62.9935 63.952ZM68.4183 66.16C68.4183 63.472 70.4343 62.096 72.6583 62.096C74.8983 62.096 76.8983 63.472 76.8983 66.16C76.8983 68.848 74.8983 70.224 72.6583 70.224C70.4343 70.224 68.4183 68.848 68.4183 66.16ZM74.6423 66.16C74.6423 64.976 73.9383 64.08 72.6583 64.08C71.3943 64.08 70.6903 64.976 70.6903 66.16C70.6903 67.344 71.3943 68.24 72.6583 68.24C73.9383 68.24 74.6423 67.344 74.6423 66.16ZM86.9743 72.032H84.9263V70H78.3503V62.32H80.5743V68.128H83.5983V62.32H85.8223V68.176H86.9743V72.032ZM90.3019 70H88.3659V62.32H90.5899V66.64L94.0139 62.32H95.9339V70H93.7259V65.68L90.3019 70ZM101.787 70H99.579V64.192H97.131V62.32H104.235V64.192H101.787V70ZM109.428 70H105.428V62.32H107.652V64.72H109.428C111.444 64.72 112.532 65.888 112.532 67.36C112.532 68.832 111.444 70 109.428 70ZM107.636 66.32V68.4H108.884C109.764 68.4 110.244 68.016 110.244 67.36C110.244 66.704 109.764 66.32 108.884 66.32H107.636ZM116.004 70H113.78V62.32H116.004V70Z" fill="#472981"/>
<path d="M90.1136 375.16C90.1136 372.264 92.3376 371.096 94.0656 371.096C97.2496 371.096 98.2736 373.608 97.7616 375.88H92.3536C92.6096 377 93.7936 377.464 95.0576 377.464C95.9376 377.464 96.7216 377.288 97.3776 377V378.744C96.6576 379.048 95.7136 379.224 94.5616 379.224C92.1296 379.224 90.1136 377.832 90.1136 375.16ZM95.7616 374.44C95.8416 373.912 95.5376 372.792 94.1456 372.792C93.2016 372.792 92.3696 373.384 92.3376 374.44H95.7616ZM98.8323 375.272C98.8323 372.328 101.04 371.08 103.168 371.08C104.016 371.08 104.848 371.272 105.536 371.64V373.592C104.992 373.24 104.224 373.016 103.488 373.016C102.272 373.016 101.104 373.608 101.104 375.16C101.104 376.632 102.256 377.304 103.456 377.304C104.272 377.304 105.056 377.08 105.616 376.744V378.712C104.864 379.032 104 379.224 103.024 379.224C100.928 379.224 98.8323 378.008 98.8323 375.272ZM111.123 379H108.915V373.192H106.467V371.32H113.571V373.192H111.123V379ZM114.129 375.16C114.129 372.264 116.353 371.096 118.081 371.096C121.265 371.096 122.289 373.608 121.777 375.88H116.369C116.625 377 117.809 377.464 119.073 377.464C119.953 377.464 120.737 377.288 121.393 377V378.744C120.673 379.048 119.729 379.224 118.577 379.224C116.145 379.224 114.129 377.832 114.129 375.16ZM119.777 374.44C119.857 373.912 119.553 372.792 118.161 372.792C117.217 372.792 116.385 373.384 116.353 374.44H119.777ZM122.848 375.272C122.848 372.328 125.056 371.08 127.184 371.08C128.032 371.08 128.864 371.272 129.552 371.64V373.592C129.008 373.24 128.24 373.016 127.504 373.016C126.288 373.016 125.12 373.608 125.12 375.16C125.12 376.632 126.272 377.304 127.472 377.304C128.288 377.304 129.072 377.08 129.632 376.744V378.712C128.88 379.032 128.016 379.224 127.04 379.224C124.944 379.224 122.848 378.008 122.848 375.272ZM135.139 379H132.931V373.192H130.483V371.32H137.587V373.192H135.139V379ZM143.484 379H138.78V371.32H143.356C145.18 371.32 145.884 372.312 145.884 373.352C145.884 374.232 145.452 374.824 144.7 375.112C145.532 375.384 146.06 375.992 146.06 376.92C146.06 378.008 145.42 379 143.484 379ZM141.004 375.816V377.48H142.828C143.388 377.48 143.852 377.272 143.852 376.664C143.852 376.008 143.372 375.816 142.828 375.816H141.004ZM140.988 372.84V374.472H142.684C143.212 374.472 143.644 374.264 143.644 373.672C143.644 373.032 143.18 372.84 142.668 372.84H140.988ZM147.129 375.16C147.129 372.264 149.353 371.096 151.081 371.096C154.265 371.096 155.289 373.608 154.777 375.88H149.369C149.625 377 150.809 377.464 152.073 377.464C152.953 377.464 153.737 377.288 154.393 377V378.744C153.673 379.048 152.729 379.224 151.577 379.224C149.145 379.224 147.129 377.832 147.129 375.16ZM152.777 374.44C152.857 373.912 152.553 372.792 151.161 372.792C150.217 372.792 149.385 373.384 149.353 374.44H152.777ZM158.504 379H156.28V371.32H158.504V374.232H161.608V371.32H163.832V379H161.608V376.088H158.504V379ZM167.941 379H165.717V371.32H167.941V374.232H171.045V371.32H173.269V379H171.045V376.088H167.941V379ZM179.155 379H175.155V371.32H177.379V373.72H179.155C181.171 373.72 182.259 374.888 182.259 376.36C182.259 377.832 181.171 379 179.155 379ZM177.363 375.32V377.4H178.611C179.491 377.4 179.971 377.016 179.971 376.36C179.971 375.704 179.491 375.32 178.611 375.32H177.363ZM185.731 379H183.507V371.32H185.731V379ZM187.192 375.16C187.192 372.264 189.416 371.096 191.144 371.096C194.328 371.096 195.352 373.608 194.84 375.88H189.432C189.688 377 190.872 377.464 192.136 377.464C193.016 377.464 193.8 377.288 194.456 377V378.744C193.736 379.048 192.792 379.224 191.64 379.224C189.208 379.224 187.192 377.832 187.192 375.16ZM192.84 374.44C192.92 373.912 192.616 372.792 191.224 372.792C190.28 372.792 189.448 373.384 189.416 374.44H192.84ZM111.504 400H109.28V392.32H111.504V395.184H112.432L114.384 392.32H116.88L114.24 396.112L117.104 400H114.608L112.4 396.96H111.504V400ZM119.982 400H118.046V392.32H120.27V396.64L123.694 392.32H125.614V400H123.406V395.68L119.982 400ZM130.907 394.08C130.683 397.536 130.091 400.16 127.979 400.16C127.627 400.16 127.211 400.096 126.763 399.936V398.176C126.923 398.24 127.083 398.272 127.227 398.272C128.443 398.272 128.715 395.76 128.859 392.32H135.099V400H132.875V394.08H130.907ZM140.391 394.08C140.167 397.536 139.575 400.16 137.463 400.16C137.111 400.16 136.695 400.096 136.247 399.936V398.176C136.407 398.24 136.567 398.272 136.711 398.272C137.927 398.272 138.199 395.76 138.343 392.32H144.583V400H142.359V394.08H140.391ZM146.035 396.16C146.035 393.264 148.259 392.096 149.987 392.096C153.171 392.096 154.195 394.608 153.683 396.88H148.275C148.531 398 149.715 398.464 150.979 398.464C151.859 398.464 152.643 398.288 153.299 398V399.744C152.579 400.048 151.635 400.224 150.483 400.224C148.051 400.224 146.035 398.832 146.035 396.16ZM151.683 395.44C151.763 394.912 151.459 393.792 150.067 393.792C149.123 393.792 148.291 394.384 148.259 395.44H151.683ZM157.154 393.44C157.634 392.752 158.514 392.096 159.938 392.096C162.37 392.096 163.682 394.064 163.682 396.16C163.682 398.256 162.37 400.224 159.938 400.224C158.722 400.224 157.906 399.728 157.41 399.184V403.52H155.186V392.32H157.154V393.44ZM161.41 396.16C161.41 394.96 160.658 393.968 159.394 393.968C158.418 393.968 157.698 394.576 157.394 395.248V397.072C157.698 397.744 158.418 398.352 159.394 398.352C160.658 398.352 161.41 397.36 161.41 396.16ZM169.139 400H165.139V392.32H167.363V394.72H169.139C171.155 394.72 172.243 395.888 172.243 397.36C172.243 398.832 171.155 400 169.139 400ZM167.347 396.32V398.4H168.595C169.475 398.4 169.955 398.016 169.955 397.36C169.955 396.704 169.475 396.32 168.595 396.32H167.347ZM175.715 400H173.491V392.32H175.715V400Z" fill="#472981"/>
<path d="M421.634 320.032H419.586V316.304H420.658C421.586 314.688 421.826 312.752 421.778 310.32H428.098V316.304H429.25V320.032H427.202V318H421.634V320.032ZM423.826 312.016C423.762 313.824 423.538 315.056 422.962 316.304H425.89V312.016H423.826ZM430.028 314.16C430.028 311.264 432.252 310.096 433.98 310.096C437.164 310.096 438.188 312.608 437.676 314.88H432.268C432.524 316 433.708 316.464 434.972 316.464C435.852 316.464 436.636 316.288 437.292 316V317.744C436.572 318.048 435.628 318.224 434.476 318.224C432.044 318.224 430.028 316.832 430.028 314.16ZM435.676 313.44C435.756 312.912 435.452 311.792 434.06 311.792C433.116 311.792 432.284 312.384 432.252 313.44H435.676ZM441.402 318H439.178V310.32H441.402V313.232H444.506V310.32H446.73V318H444.506V315.088H441.402V318ZM450.056 320.032H448.008V316.304H449.08C450.008 314.688 450.248 312.752 450.2 310.32H456.52V316.304H457.672V320.032H455.624V318H450.056V320.032ZM452.248 312.016C452.184 313.824 451.96 315.056 451.384 316.304H454.312V312.016H452.248ZM461.021 311.44C461.501 310.752 462.381 310.096 463.805 310.096C466.237 310.096 467.549 312.064 467.549 314.16C467.549 316.256 466.237 318.224 463.805 318.224C462.589 318.224 461.773 317.728 461.277 317.184V321.52H459.053V310.32H461.021V311.44ZM465.277 314.16C465.277 312.96 464.525 311.968 463.261 311.968C462.285 311.968 461.565 312.576 461.261 313.248V315.072C461.565 315.744 462.285 316.352 463.261 316.352C464.525 316.352 465.277 315.36 465.277 314.16ZM470.943 318H469.007V310.32H471.231V314.64L474.655 310.32H476.575V318H474.367V313.68L470.943 318ZM482.428 318H480.22V312.192H477.772V310.32H484.876V312.192H482.428V318ZM488.293 318H486.069V310.32H488.293V313.232H491.397V310.32H493.621V318H491.397V315.088H488.293V318ZM499.507 318H495.507V310.32H497.731V312.72H499.507C501.523 312.72 502.611 313.888 502.611 315.36C502.611 316.832 501.523 318 499.507 318ZM497.715 314.32V316.4H498.963C499.843 316.4 500.323 316.016 500.323 315.36C500.323 314.704 499.843 314.32 498.963 314.32H497.715ZM506.083 318H503.859V310.32H506.083V318ZM507.543 314.16C507.543 311.264 509.767 310.096 511.495 310.096C514.679 310.096 515.703 312.608 515.191 314.88H509.783C510.039 316 511.223 316.464 512.487 316.464C513.367 316.464 514.151 316.288 514.807 316V317.744C514.087 318.048 513.143 318.224 511.991 318.224C509.559 318.224 507.543 316.832 507.543 314.16ZM513.191 313.44C513.271 312.912 512.967 311.792 511.575 311.792C510.631 311.792 509.799 312.384 509.767 313.44H513.191ZM444.316 339H442.092V331.32H444.316V334.184H445.244L447.196 331.32H449.692L447.052 335.112L449.916 339H447.42L445.212 335.96H444.316V339ZM454.266 333.08C454.042 336.536 453.45 339.16 451.338 339.16C450.986 339.16 450.57 339.096 450.122 338.936V337.176C450.282 337.24 450.442 337.272 450.586 337.272C451.802 337.272 452.074 334.76 452.218 331.32H458.458V339H456.234V333.08H454.266ZM459.91 335.16C459.91 332.264 462.134 331.096 463.862 331.096C467.046 331.096 468.07 333.608 467.558 335.88H462.15C462.406 337 463.59 337.464 464.854 337.464C465.734 337.464 466.518 337.288 467.174 337V338.744C466.454 339.048 465.51 339.224 464.358 339.224C461.926 339.224 459.91 337.832 459.91 335.16ZM465.558 334.44C465.638 333.912 465.334 332.792 463.942 332.792C462.998 332.792 462.166 333.384 462.134 334.44H465.558ZM472.935 339H470.727V333.192H468.279V331.32H475.383V333.192H472.935V339ZM478.801 339H476.577V331.32H478.801V334.184H479.729L481.681 331.32H484.177L481.537 335.112L484.401 339H481.905L479.697 335.96H478.801V339ZM487.278 339H485.342V331.32H487.566V335.64L490.99 331.32H492.91V339H490.702V334.68L487.278 339Z" fill="#472981"/>
<path d="M373.292 87H371.132V79.32H373.26L375.644 83.128L378.044 79.32H380.156V87H378.012V82.472L376.204 85.336H375.1L373.292 82.472V87ZM388.902 85.016C388.902 85.416 389.158 85.528 389.446 85.528C389.574 85.528 389.718 85.512 389.862 85.464V86.92C389.51 87.048 389.062 87.144 388.63 87.144C387.846 87.144 387.254 86.856 386.934 86.28C386.182 86.872 385.302 87.224 384.166 87.224C382.726 87.224 381.478 86.392 381.478 84.872C381.478 82.92 383.318 82.312 384.854 82.312C385.462 82.312 386.134 82.392 386.678 82.52V82.248C386.678 81.48 386.07 80.952 384.87 80.952C383.814 80.952 382.87 81.24 382.15 81.528V79.608C382.774 79.4 383.942 79.096 385.126 79.096C387.43 79.096 388.902 80.04 388.902 82.568V85.016ZM385.366 83.64C384.55 83.64 383.75 83.912 383.75 84.696C383.75 85.272 384.278 85.64 384.95 85.64C385.574 85.64 386.166 85.464 386.678 85.016V83.816C386.342 83.736 385.83 83.64 385.366 83.64ZM393.277 87H391.053V79.32H393.277V82.184H394.205L396.157 79.32H398.653L396.013 83.112L398.877 87H396.381L394.173 83.96H393.277V87ZM401.787 80.44C402.267 79.752 403.147 79.096 404.571 79.096C407.003 79.096 408.315 81.064 408.315 83.16C408.315 85.256 407.003 87.224 404.571 87.224C403.355 87.224 402.539 86.728 402.043 86.184V90.52H399.819V79.32H401.787V80.44ZM406.043 83.16C406.043 81.96 405.291 80.968 404.027 80.968C403.051 80.968 402.331 81.576 402.027 82.248V84.072C402.331 84.744 403.051 85.352 404.027 85.352C405.291 85.352 406.043 84.36 406.043 83.16ZM409.34 83.16C409.34 80.472 411.356 79.096 413.58 79.096C415.82 79.096 417.82 80.472 417.82 83.16C417.82 85.848 415.82 87.224 413.58 87.224C411.356 87.224 409.34 85.848 409.34 83.16ZM415.564 83.16C415.564 81.976 414.86 81.08 413.58 81.08C412.316 81.08 411.612 81.976 411.612 83.16C411.612 84.344 412.316 85.24 413.58 85.24C414.86 85.24 415.564 84.344 415.564 83.16ZM425.368 90.52H423.256V87.224C420.712 87.128 418.824 85.608 418.824 83.16C418.824 80.712 420.712 79.192 423.256 79.096V75.8H425.368V79.096C427.912 79.192 429.8 80.712 429.8 83.16C429.8 85.608 427.912 87.128 425.368 87.224V90.52ZM421.048 83.16C421.048 84.312 421.784 85.288 423.272 85.368V80.952C421.784 81.032 421.048 82.008 421.048 83.16ZM425.384 80.952V85.368C426.872 85.288 427.608 84.312 427.608 83.16C427.608 82.008 426.872 81.032 425.384 80.952ZM438.105 85.016C438.105 85.416 438.361 85.528 438.649 85.528C438.777 85.528 438.921 85.512 439.065 85.464V86.92C438.713 87.048 438.265 87.144 437.833 87.144C437.049 87.144 436.457 86.856 436.137 86.28C435.385 86.872 434.505 87.224 433.369 87.224C431.929 87.224 430.681 86.392 430.681 84.872C430.681 82.92 432.521 82.312 434.057 82.312C434.665 82.312 435.337 82.392 435.881 82.52V82.248C435.881 81.48 435.273 80.952 434.073 80.952C433.017 80.952 432.073 81.24 431.353 81.528V79.608C431.977 79.4 433.145 79.096 434.329 79.096C436.633 79.096 438.105 80.04 438.105 82.568V85.016ZM434.569 83.64C433.753 83.64 432.953 83.912 432.953 84.696C432.953 85.272 433.481 85.64 434.153 85.64C434.777 85.64 435.369 85.464 435.881 85.016V83.816C435.545 83.736 435.033 83.64 434.569 83.64ZM442.481 87H440.257V79.32H446.113V81.192H442.481V87ZM449.239 87H447.303V79.32H449.527V83.64L452.951 79.32H454.871V87H452.663V82.68L449.239 87Z" fill="#472981"/>
<path d="M185.495 153.427C185.535 153.7 185.347 153.954 185.073 153.995L180.622 154.656C180.349 154.697 180.095 154.508 180.054 154.235C180.014 153.962 180.202 153.707 180.475 153.667L184.432 153.079L183.844 149.122C183.803 148.849 183.992 148.595 184.265 148.554C184.538 148.514 184.793 148.702 184.833 148.975L185.495 153.427ZM113.798 100.098L185.298 153.098L184.702 153.902L113.202 100.902L113.798 100.098Z" fill="#472981"/>
<path d="M209.945 294.003C210.219 293.973 210.466 294.17 210.497 294.445L210.994 298.917C211.024 299.192 210.827 299.439 210.552 299.469C210.278 299.5 210.03 299.302 210 299.028L209.558 295.052L205.583 295.494C205.308 295.524 205.061 295.327 205.031 295.052C205 294.778 205.198 294.53 205.472 294.5L209.945 294.003ZM191.61 316.688L209.61 294.188L210.39 294.812L192.39 317.312L191.61 316.688Z" fill="#472981"/>
<path d="M346.016 250.126C345.947 249.859 346.107 249.586 346.374 249.516L350.728 248.381C350.996 248.311 351.269 248.472 351.338 248.739C351.408 249.006 351.248 249.279 350.981 249.349L347.11 250.358L348.119 254.228C348.189 254.496 348.028 254.769 347.761 254.838C347.494 254.908 347.221 254.748 347.151 254.481L346.016 250.126ZM412.747 289.431L346.247 250.431L346.753 249.569L413.253 288.569L412.747 289.431Z" fill="#472981"/>
<path d="M335 157.5C334.724 157.5 334.5 157.276 334.5 157L334.5 152.5C334.5 152.224 334.724 152 335 152C335.276 152 335.5 152.224 335.5 152.5L335.5 156.5L339.5 156.5C339.776 156.5 340 156.724 340 157C340 157.276 339.776 157.5 339.5 157.5L335 157.5ZM374.354 118.354L335.354 157.354L334.646 156.646L373.646 117.646L374.354 118.354Z" fill="#472981"/>
</svg>
