<svg width="90" height="66" viewBox="0 0 90 66" fill="none" xmlns="http://www.w3.org/2000/svg">
  <path d="M8.16004 18.608V31.4006H7.0632V19.704H5.60103V31.3998H4.50419V18.608H8.16004Z" fill="#7758DB" />
  <path d="M10.5724 18.608H11.5955C11.9609 18.608 12.2713 18.7358 12.5277 18.9922C12.7833 19.2478 12.9119 19.5591 12.9119 19.9244V30.0851C12.9119 30.4504 12.7841 30.7609 12.5277 31.0173C12.2713 31.2737 11.9609 31.4014 11.5955 31.4014H10.5724C10.2071 31.4014 9.89662 31.2737 9.64023 31.0173C9.38466 30.7617 9.25605 30.4504 9.25605 30.0851V19.9236C9.25605 19.5582 9.38384 19.2478 9.64023 18.9914C9.89662 18.7358 10.2071 18.608 10.5724 18.608ZM10.719 30.3038H11.4497C11.5472 30.3038 11.6324 30.2669 11.7053 30.194C11.7782 30.1211 11.8151 30.0359 11.8151 29.9384V20.0702C11.8151 19.9727 11.7782 19.8875 11.7053 19.8146C11.6324 19.7417 11.5472 19.7049 11.4497 19.7049H10.719C10.6216 19.7049 10.5364 19.7417 10.4635 19.8146C10.3906 19.8875 10.3537 19.9727 10.3537 20.0702V29.9384C10.3537 30.0359 10.3906 30.1211 10.4635 30.194C10.5356 30.2669 10.6208 30.3038 10.719 30.3038Z" fill="#7758DB" />
  <path d="M14.0079 18.608H17.6629V19.7049H15.1048V25.9181H16.3474C16.7127 25.9181 17.0232 26.0459 17.2796 26.3023C17.5352 26.5578 17.6638 26.8691 17.6638 27.2344V30.0851C17.6638 30.4504 17.536 30.7609 17.2796 31.0173C17.024 31.2728 16.7127 31.4014 16.3474 31.4014H14.0079V18.608ZM15.1048 30.3038H16.2016C16.2991 30.3038 16.3843 30.2669 16.4572 30.194C16.5301 30.1211 16.5669 30.0359 16.5669 29.9384V27.3803C16.5669 27.2828 16.5301 27.1976 16.4572 27.1247C16.3843 27.0518 16.2991 27.0149 16.2016 27.0149H15.1048V30.3038Z" fill="#7758DB" />
  <path d="M18.7598 18.608H22.4148V19.7049H19.8566V25.9181H21.8668V27.0149H19.8566V30.3046H22.4148V31.4014H18.7598V18.608Z" fill="#7758DB" />
  <path d="M23.5108 31.9118V30.3038H24.0228V19.9236C24.0228 19.5582 24.1506 19.2478 24.407 18.9914C24.6625 18.7358 24.9738 18.6072 25.3392 18.6072H26.3623C26.7276 18.6072 27.0381 18.735 27.2945 18.9914C27.55 19.247 27.6786 19.5582 27.6786 19.9236V30.3038H28.1906V31.9118H27.0938V31.3998H24.6077V31.9118H23.5108ZM26.581 30.3038V20.0702C26.581 19.9727 26.5441 19.8875 26.4712 19.8146C26.3983 19.7417 26.3131 19.7049 26.2156 19.7049H25.485C25.3875 19.7049 25.3023 19.7417 25.2294 19.8146C25.1565 19.8875 25.1196 19.9727 25.1196 20.0702V30.3038H26.581Z" fill="#7758DB" />
  <path d="M29.2858 18.608H30.3826V26.43L31.8448 24.9679V18.608H32.9416V31.4006H31.8448V26.521L30.3826 27.9831V31.4006H29.2858V18.608Z" fill="#7758DB" />
  <path d="M35.1337 18.608L36.7785 24.913L38.4234 18.608H39.5202V31.4006H38.4234V22.8111L37.3265 27.0141H36.2297L35.1329 22.8111V31.4006H34.036V18.608H35.1337Z" fill="#7758DB" />
  <path d="M17.7981 4.78495C18.1634 4.78495 18.4739 4.89226 18.7303 5.10769C18.9859 5.32313 19.1145 5.58443 19.1145 5.89243V7.53892C19.1145 8.07218 19.1022 8.58251 19.0776 9.0699C19.053 9.55729 18.9736 9.99062 18.8401 10.3699C18.4747 11.3651 17.7129 11.8624 16.5555 11.8624V15.5551H15.4586V4.78495H17.7981ZM18.0176 7.44717V6.01612C18.0176 5.93421 17.9808 5.86213 17.9079 5.80069C17.835 5.73925 17.7498 5.70813 17.6523 5.70813H16.5555V10.9392C16.8848 10.9392 17.1461 10.8728 17.341 10.7393C17.536 10.6058 17.6851 10.3986 17.7891 10.1159C17.8923 9.83416 17.9562 9.4721 17.9808 9.0314C18.0053 8.5907 18.0176 8.06235 18.0176 7.44717Z" fill="#7758DB" />
  <path d="M20.2105 5.89325C20.2105 5.58525 20.3383 5.32395 20.5947 5.10851C20.8502 4.89308 21.1615 4.78577 21.5269 4.78577H22.55C22.9153 4.78577 23.2258 4.89308 23.4822 5.10851C23.7377 5.32395 23.8663 5.58525 23.8663 5.89325V15.5551H22.7695V11.8624H21.3073V15.5551H20.2105V5.89325ZM22.7695 10.9392V6.01612C22.7695 5.93421 22.7326 5.86213 22.6597 5.80069C22.5868 5.73925 22.5016 5.70813 22.4042 5.70813H21.6735C21.576 5.70813 21.4908 5.73925 21.4179 5.80069C21.345 5.86213 21.3081 5.93421 21.3081 6.01612V10.9392H22.7695Z" fill="#7758DB" />
  <path d="M26.0584 4.78495V10.9392C26.3877 10.9392 26.649 10.8728 26.8439 10.7393C27.0389 10.6058 27.188 10.3986 27.292 10.1159C27.3952 9.83416 27.4591 9.4721 27.4837 9.0314C27.5082 8.5907 27.5205 8.06235 27.5205 7.44635V4.78495H28.6174V7.76991C28.6174 8.26222 28.6018 8.72913 28.5715 9.16983C28.5412 9.61135 28.465 10.0111 28.343 10.3699C28.2455 10.6574 28.1177 10.8982 27.9596 11.0932C28.1668 11.1858 28.3282 11.316 28.4437 11.4856C28.5592 11.6551 28.6174 11.8419 28.6174 12.0475V15.5551H27.5205V12.1704C27.5205 12.0884 27.4837 12.0164 27.4108 11.9549C27.3379 11.8935 27.2527 11.8624 27.1552 11.8624H26.0584V15.5551H24.9615V4.78495H26.0584Z" fill="#7758DB" />
  <path d="M22.0626 35.0393C21.7529 35.0393 21.5023 35.2899 21.5023 35.5996V49.6921C21.5023 50.0018 21.7529 50.2524 22.0626 50.2524C22.3722 50.2524 22.6229 50.0018 22.6229 49.6921V35.5996C22.6229 35.2899 22.3722 35.0393 22.0626 35.0393Z" fill="#7758DB" />
  <path d="M22.0626 53.3742C21.7529 53.3742 21.5023 53.6248 21.5023 53.9345V54.4514C21.5023 54.761 21.7529 55.0117 22.0626 55.0117C22.3722 55.0117 22.6229 54.761 22.6229 54.4514V53.9345C22.6229 53.6248 22.3722 53.3742 22.0626 53.3742Z" fill="#7758DB" />
  <path d="M22.0192 60.5745C21.9888 60.5745 21.9585 60.572 21.929 60.5671C19.6698 60.1985 14.1128 55.8202 9.44282 49.8887C6.68394 46.3852 4.48535 42.713 2.90768 38.9744C1.02201 34.5052 0.0775313 30.0392 0.101286 25.7002C0.124223 21.5357 0.0840845 14.0282 0.0578719 9.91853C0.0480421 9.63101 0.0439453 9.391 0.0439453 9.16574C0.0439453 9.00109 0.0464041 8.83808 0.0504999 8.67425L0.0447653 7.8461C0.0439461 7.68964 0.107841 7.53973 0.222521 7.43243C0.337201 7.32594 0.491201 7.27187 0.647657 7.28334C0.90405 7.303 1.16536 7.31283 1.42339 7.31283C3.49583 7.31283 5.48553 6.68618 7.17706 5.5017C8.83092 4.34261 10.085 2.73791 10.8034 0.859605C10.8862 0.642532 11.0942 0.5 11.3269 0.5H32.8016C33.0334 0.5 33.2414 0.643351 33.325 0.859605C34.0434 2.73791 35.2975 4.34261 36.9514 5.5017C38.6429 6.687 40.6318 7.31283 42.705 7.31283C42.9295 7.31283 43.1629 7.30464 43.3988 7.28826C43.5545 7.27761 43.7077 7.33249 43.8207 7.43898C43.9346 7.54547 43.9985 7.69537 43.9968 7.85101L43.9911 8.67343C43.9944 8.83726 43.9968 9.00027 43.9968 9.16492C43.9968 9.39264 43.9919 9.63183 43.9829 9.91853C43.9567 14.029 43.9165 21.5365 43.9395 25.7002C43.9714 31.6234 42.2324 37.6867 38.7707 43.7263L46.3945 54.797C46.5296 54.9928 46.5255 55.2533 46.3854 55.445C46.2446 55.6375 45.9988 55.7194 45.7703 55.6506L33.0342 51.7818C28.6182 56.8916 24.0383 60.2526 22.1109 60.5663C22.0798 60.572 22.0495 60.5745 22.0192 60.5745ZM1.16781 8.42933L1.16945 8.67343C1.16945 8.67917 1.16945 8.68408 1.16945 8.68982C1.16618 8.84791 1.16372 9.00601 1.16372 9.1641C1.16372 9.37872 1.16781 9.6089 1.17764 9.88659C1.17764 9.8915 1.17764 9.89723 1.17764 9.90215C1.20386 14.0126 1.244 21.5324 1.22106 25.7051C1.19812 29.8918 2.11311 34.2095 3.9398 38.5378C5.47898 42.1847 7.62677 45.7701 10.3226 49.1949C12.4917 51.9497 15.0155 54.5636 17.427 56.5533C19.7165 58.4431 21.3049 59.281 22.02 59.4432C23.6067 59.0926 28.0022 55.9586 32.4198 50.7759C32.5648 50.6063 32.7958 50.5383 33.0088 50.603L44.562 54.1122L37.646 44.0687C37.5231 43.8901 37.5141 43.6567 37.6231 43.4691C41.1011 37.5024 42.8492 31.5259 42.8181 25.7051C42.7951 21.5332 42.8361 14.0134 42.8615 9.90297C42.8615 9.89806 42.8615 9.89232 42.8615 9.88741C42.8705 9.61053 42.8754 9.38117 42.8754 9.1641C42.8754 9.00519 42.873 8.84709 42.8697 8.689C42.8697 8.68326 42.8697 8.67835 42.8697 8.67261L42.8713 8.43015C42.8148 8.43096 42.7591 8.43178 42.7034 8.43178C40.3991 8.43178 38.1874 7.73551 36.3067 6.41751C34.5758 5.20435 33.239 3.55132 32.4215 1.61813H11.7037C10.887 3.55132 9.54931 5.20435 7.81845 6.41751C5.86889 7.78384 3.56627 8.48257 1.16781 8.42933Z" fill="#7758DB" />
  <path d="M34.9199 59.9216C36.4083 59.9216 37.7861 60.8808 37.7861 62.7108C37.7861 64.5408 36.4083 65.5 34.9199 65.5C33.443 65.5 32.0537 64.5408 32.0537 62.7108C32.0537 60.8808 33.443 59.9216 34.9199 59.9216ZM34.9199 61.0021C33.9279 61.0021 33.2447 61.6746 33.2447 62.7108C33.2447 63.747 33.9279 64.4195 34.9199 64.4195C35.9012 64.4195 36.5844 63.747 36.5844 62.7108C36.5844 61.6746 35.9012 61.0021 34.9199 61.0021Z" fill="#7758DB" />
  <path d="M41.8204 59.9216C43.1539 59.9216 44.0034 60.8251 44.0034 62.0825V65.3567H42.8238V62.2373C42.8238 61.3772 42.2946 60.9693 41.5894 60.9693C40.9168 60.9693 40.4098 61.4215 40.1124 61.8515V65.3567H38.9329V60.0658H39.9797V60.7932C40.3647 60.3296 41.0151 59.9216 41.8204 59.9216Z" fill="#7758DB" />
  <path d="M48.0041 59.9216C48.5996 59.9216 49.1722 60.0535 49.6358 60.3296V61.41C49.25 61.1348 48.7102 60.9693 48.1695 60.9693C47.2324 60.9693 46.2847 61.4657 46.2847 62.7108C46.2847 63.9125 47.1997 64.4523 48.1474 64.4523C48.7094 64.4523 49.2721 64.2868 49.6907 64.0444V65.1355C49.1837 65.378 48.6103 65.4992 47.9377 65.4992C46.5263 65.4992 45.0822 64.6391 45.0822 62.7542C45.0822 60.7817 46.5927 59.9216 48.0041 59.9216Z" fill="#7758DB" />
  <path d="M53.3171 59.9216C54.8055 59.9216 56.1833 60.8808 56.1833 62.7108C56.1833 64.5408 54.8055 65.5 53.3171 65.5C51.8401 65.5 50.4509 64.5408 50.4509 62.7108C50.4509 60.8808 51.8393 59.9216 53.3171 59.9216ZM53.3171 61.0021C52.3251 61.0021 51.6411 61.6746 51.6411 62.7108C51.6411 63.747 52.3243 64.4195 53.3171 64.4195C54.2984 64.4195 54.9816 63.747 54.9816 62.7108C54.9816 61.6746 54.2976 61.0021 53.3171 61.0021Z" fill="#7758DB" />
  <path d="M61.2529 62.1153V63.1736H57.2408V62.1153H61.2529Z" fill="#7758DB" />
  <path d="M63.8431 57.3094V65.3567H62.6635V57.3094H63.8431Z" fill="#7758DB" />
  <path d="M65.9597 59.0509C65.5739 59.0509 65.2323 58.8305 65.2323 58.3456C65.2323 57.8828 65.5739 57.651 65.9597 57.651C66.3456 57.651 66.6765 57.8828 66.6765 58.3456C66.6765 58.8305 66.3456 59.0509 65.9597 59.0509ZM65.3642 65.3558V60.065H66.5438V65.3558H65.3642Z" fill="#7758DB" />
  <path d="M68.5056 61.1012H67.5464V60.065H68.5056V59.4809C68.5056 57.9483 69.5091 57.497 70.479 57.497C70.9639 57.497 71.4267 57.5961 71.7904 57.7288V58.765C71.5258 58.6331 71.14 58.5332 70.7657 58.5332C70.1923 58.5332 69.6852 58.6986 69.6852 59.5252V60.065H71.4931V61.1012H69.6852V65.3567H68.5056V61.1012Z" fill="#7758DB" />
  <path d="M74.5796 59.9216C76.6848 59.9216 77.4122 61.6189 77.0706 63.1515H73.0912C73.2231 64.0993 74.1496 64.4965 75.1194 64.4965C75.7592 64.4965 76.3432 64.3425 76.7954 64.1214V65.1355C76.3105 65.3673 75.6379 65.4992 74.8991 65.4992C73.2788 65.4992 71.901 64.5727 71.901 62.71C71.901 60.7924 73.3558 59.9216 74.5796 59.9216ZM74.6345 60.903C73.8407 60.903 73.124 61.3772 73.0806 62.2701H76.0131C76.0786 61.8065 75.7919 60.903 74.6345 60.903Z" fill="#7758DB" />
  <path d="M78.8121 65.4771C78.4157 65.4771 78.0626 65.2452 78.0626 64.7497C78.0626 64.2754 78.4157 64.0444 78.8121 64.0444C79.2086 64.0444 79.551 64.2762 79.551 64.7497C79.5502 65.2461 79.2086 65.4771 78.8121 65.4771Z" fill="#7758DB" />
  <path d="M84.0915 59.9544V61.1118C83.1438 60.9791 82.3164 61.3985 81.997 62.1481V65.3558H80.8174V60.065H81.8643V60.9357C82.273 60.2853 83.1331 59.8667 84.0915 59.9544Z" fill="#7758DB" />
  <path d="M90 65.3558H88.9523V64.6284C88.5665 65.0912 87.9161 65.4992 87.1117 65.4992C85.7118 65.4992 84.9287 64.5948 84.9287 63.3383V60.0642H86.1083V63.1835C86.1083 64.0436 86.5604 64.4515 87.3427 64.4515C88.0152 64.4515 88.5223 63.9993 88.8196 63.5693V60.0642H90V65.3558Z" fill="#7758DB" />
</svg>